<?xml version="1.0" encoding="UTF-8"?>
<svg id="Camada_2" data-name="Camada 2" xmlns="http://www.w3.org/2000/svg"
  viewBox="0 0 750.17 149.17">
  <defs>
    <style>
      .cls-1 {
      fill: #fff;
      }

      .cls-1, .cls-2 {
      stroke-width: 0px;
      }

      .cls-2 {
      fill: #009CB1;
      }
    </style>
  </defs>
  <g id="Layer_1" data-name="Layer 1">
    <g>
      <g>
        <g>
          <path class="cls-1"
            d="M146.73,101.35v-54.02h20.91c14.64,0,25.06,10.01,25.06,26.44s-9.35,27.58-23.35,27.58h-22.62ZM167.07,92.16c9.84,0,14.07-6.18,14.07-18.39s-4.23-17.08-15.05-17.08h-8.38v35.47h9.35Z" />
          <path class="cls-1"
            d="M195.46,81.34c0-12.69,7.89-21.07,20.58-21.07s20.34,8.3,20.34,21.07-7.89,21.07-20.34,21.07-20.58-8.62-20.58-21.07ZM225.72,81.34c0-8.14-3.25-12.12-9.68-12.12s-9.68,3.99-9.68,12.12,3.25,12.2,9.68,12.2,9.68-4.07,9.68-12.2Z" />
          <path class="cls-1"
            d="M276.24,86.87c-1.14,9.27-8.7,15.54-18.39,15.54-10.9,0-18.39-7.24-18.39-21.56s7.48-20.58,18.71-20.58c10.41,0,17.49,5.94,18.14,15.38h-10.66c-.57-4.15-3.58-6.59-7.57-6.59-4.47,0-8.14,2.85-8.14,11.55s3.66,12.94,7.81,12.94,7.4-2.36,7.81-6.67h10.66Z" />
          <path class="cls-1"
            d="M302.03,75h9.84v11.39c0,8.46-4.88,16.03-16.19,16.03s-16.35-7.48-16.35-16.11v-35.79h10.41v10.82h22.13v7.48h-22.13v16.43c0,5.04,1.79,7.97,6.1,7.97s6.18-2.85,6.18-7.81v-10.41Z" />
          <path class="cls-1"
            d="M315.28,81.34c0-12.69,7.89-21.07,20.58-21.07s20.34,8.3,20.34,21.07-7.89,21.07-20.34,21.07-20.58-8.62-20.58-21.07ZM345.55,81.34c0-8.14-3.25-12.12-9.68-12.12s-9.68,3.99-9.68,12.12,3.25,12.2,9.68,12.2,9.68-4.07,9.68-12.2Z" />
          <path class="cls-1"
            d="M360.03,101.35v-40.03h9.93v4.8c3.5-5.37,7.57-5.86,11.88-5.86h1.38v10.82c-.98-.16-1.95-.24-2.93-.24-6.51,0-9.68,3.25-9.68,9.68v20.83h-10.58Z" />
          <path class="cls-1"
            d="M427.06,101.35l-4.96-13.18h-25.71l-5.12,13.18h-6.43l21.15-54.02h6.75l20.91,54.02h-6.59ZM409.32,54.25l-11.23,28.88h22.21l-10.98-28.88Z" />
          <path class="cls-1"
            d="M462.12,73.45c-.49-5.94-3.33-8.79-11.47-8.79-6.18,0-10.01,1.63-10.01,6.43,0,3.34,1.79,5.04,5.94,6.1,3.9.98,9.68,1.3,14.97,3.25,3.25,1.22,7.16,3.25,7.16,9.44,0,7.4-5.53,12.53-16.68,12.53s-18.14-5.45-18.3-13.91h5.86c.16,6.02,4.72,9.52,12.37,9.52,8.54,0,11.39-4.39,11.39-7.97,0-2.28-1.14-3.66-3.58-4.8-4.23-2.03-8.95-2.03-14.56-3.66-7.73-2.2-10.09-5.37-10.09-10.01,0-7.08,5.37-11.31,15.95-11.31,11.8,0,16.19,5.21,16.51,13.18h-5.45Z" />
          <path class="cls-1"
            d="M499.7,73.45c-.49-5.94-3.33-8.79-11.47-8.79-6.18,0-10.01,1.63-10.01,6.43,0,3.34,1.79,5.04,5.94,6.1,3.9.98,9.68,1.3,14.97,3.25,3.25,1.22,7.16,3.25,7.16,9.44,0,7.4-5.53,12.53-16.68,12.53s-18.14-5.45-18.3-13.91h5.86c.16,6.02,4.72,9.52,12.37,9.52,8.54,0,11.39-4.39,11.39-7.97,0-2.28-1.14-3.66-3.58-4.8-4.23-2.03-8.95-2.03-14.56-3.66-7.73-2.2-10.09-5.37-10.09-10.01,0-7.08,5.37-11.31,15.95-11.31,11.8,0,16.19,5.21,16.51,13.18h-5.45Z" />
          <path class="cls-1"
            d="M510.52,56.53v-9.84h5.69v9.84h-5.69ZM510.52,101.35v-40.03h5.69v40.03h-5.69Z" />
          <path class="cls-1"
            d="M549.08,73.45c-.49-5.94-3.33-8.79-11.47-8.79-6.18,0-10.01,1.63-10.01,6.43,0,3.34,1.79,5.04,5.94,6.1,3.9.98,9.68,1.3,14.97,3.25,3.25,1.22,7.16,3.25,7.16,9.44,0,7.4-5.53,12.53-16.68,12.53s-18.14-5.45-18.3-13.91h5.86c.16,6.02,4.72,9.52,12.37,9.52,8.54,0,11.39-4.39,11.39-7.97,0-2.28-1.14-3.66-3.58-4.8-4.23-2.03-8.95-2.03-14.56-3.66-7.73-2.2-10.09-5.37-10.09-10.01,0-7.08,5.37-11.31,15.95-11.31,11.8,0,16.19,5.21,16.51,13.18h-5.45Z" />
          <path class="cls-1"
            d="M584.79,75h5.29v11.39c0,8.46-4.64,16.03-15.38,16.03s-15.54-7.48-15.54-16.11v-35.79h5.61v10.82h25.3v4.15h-25.3v20.34c0,6.59,2.93,11.63,10.01,11.63s10.01-5.04,10.01-11.55v-10.9Z" />
          <path class="cls-1"
            d="M623.11,101.35c-.16-.49-.24-6.67-.33-7.32-1.87,4.8-7.73,8.38-14.89,8.38-9.6,0-13.59-4.47-13.59-11.14,0-10.25,6.83-12.04,17.33-13.18,6.75-.73,10.66-1.3,10.98-3.74,0-6.1-3.09-9.6-10.66-9.6s-10.74,3.66-11.06,9.6h-5.37c.16-8.3,4.47-14.07,16.68-14.07s16.27,5.69,16.27,15.78v25.3h-5.37ZM622.78,79.63c-1.22,1.55-5.12,1.63-11.06,2.36-7.73.98-11.71,2.44-11.71,8.7,0,4.72,2.68,7.49,9.11,7.49,6.75,0,13.18-4.31,13.59-11.39l.08-7.16Z" />
          <path class="cls-1"
            d="M662.89,101.35v-25.06c0-8.87-3.74-11.14-10.41-11.14-9.93,0-12.69,7.81-12.69,17.65v18.55h-5.69v-40.03h5.45v10.01c2.28-7.89,8.46-11.06,15.05-11.06,8.22,0,13.99,3.82,13.99,14.32v26.77h-5.69Z" />
          <path class="cls-1"
            d="M699.82,75h5.29v11.39c0,8.46-4.64,16.03-15.38,16.03s-15.54-7.48-15.54-16.11v-35.79h5.61v10.82h25.3v4.15h-25.3v20.34c0,6.59,2.93,11.63,10.01,11.63s10.01-5.04,10.01-11.55v-10.9Z" />
        </g>
        <g>
          <path class="cls-1" d="M710.64,65.28v-6.6h6.79v6.6h-6.79Z" />
          <path class="cls-1"
            d="M734.98,65.28c-.2-.59-.34-1.42-.39-2.15-1.51,1.66-4.06,2.79-7.28,2.79-5.47,0-8.01-2.69-8.01-6.6,0-6.94,4.64-7.72,11.04-8.6,3.18-.44,4.06-1.08,4.06-2.74,0-1.56-1.56-2.49-4.06-2.49-2.88,0-4.06,1.42-4.35,3.57h-5.91c.1-4.98,2.83-8.45,10.55-8.45s10.26,3.42,10.26,9.48v15.2h-5.91ZM734.54,53.5c-.64.64-1.76.98-4.1,1.42-3.62.68-4.79,1.71-4.79,3.76,0,1.81,1.08,2.69,3.08,2.69,3.27,0,5.72-2.39,5.77-5.23l.05-2.64Z" />
          <path class="cls-1"
            d="M743.82,38.35v-5.91h6.35v5.91h-6.35ZM743.82,65.28v-24.04h6.35v24.04h-6.35Z" />
        </g>
      </g>
      <g>
        <path class="cls-2"
          d="M97.34,111.32h-40.11c-2.31,0-4.18,1.46-4.18,3.27v31.32c0,2.91,4.51,4.37,7.14,2.31l40.11-31.32c2.64-2.06.77-5.58-2.96-5.58Z" />
        <path class="cls-2"
          d="M23.32,37.86h39.8c2.29,0,4.15-1.46,4.15-3.27V3.27c0-2.91-4.47-4.37-7.09-2.31l-39.8,31.32c-2.61,2.06-.76,5.58,2.94,5.58Z" />
        <path class="cls-2"
          d="M109.77,42.73H10.92c-6.03,0-10.92,4.89-10.92,10.92v41.5c0,6.03,4.89,10.92,10.92,10.92h98.85c6.03,0,10.92-4.89,10.92-10.92v-41.5c0-6.03-4.89-10.92-10.92-10.92ZM80.91,78.89c-1.01,0-1.97-.19-2.86-.52-3.08,3.05-9.24,7.85-17.66,7.87h-.05c-8.44,0-14.62-4.81-17.7-7.87-.89.33-1.85.52-2.86.52-4.51,0-8.16-3.65-8.16-8.16s3.65-8.16,8.16-8.16,8.16,3.65,8.16,8.16c0,2.39-1.04,4.54-2.67,6.03,2.86,2.72,8.12,6.55,15.08,6.55h.04c6.94-.01,12.19-3.84,15.04-6.55-1.64-1.49-2.67-3.64-2.67-6.03,0-4.51,3.65-8.16,8.16-8.16s8.16,3.65,8.16,8.16-3.65,8.16-8.16,8.16Z" />
      </g>
    </g>
  </g>
</svg>